<?xml version="1.0" standalone="no"?>
<!DOCTYPE svg PUBLIC "-//W3C//DTD SVG 20010904//EN"
 "http://www.w3.org/TR/2001/REC-SVG-20010904/DTD/svg10.dtd">
<svg version="1.0" xmlns="http://www.w3.org/2000/svg"
 width="640.000000pt" height="640.000000pt" viewBox="0 0 640.000000 640.000000"
 preserveAspectRatio="xMidYMid meet">

<g transform="translate(0.000000,640.000000) scale(0.100000,-0.100000)"
fill="#000000" stroke="none">
<path d="M4280 5269 c-193 -68 -431 -233 -665 -461 l-121 -117 -94 15 c-173
26 -443 16 -614 -22 -78 -17 -63 -23 -166 72 -220 205 -518 410 -713 490 -98
40 -139 43 -162 12 -41 -59 -83 -252 -94 -439 -18 -288 18 -585 108 -877 20
-63 20 -64 0 -140 -45 -178 -174 -384 -362 -579 -44 -45 -77 -87 -75 -95 3 -7
31 -26 63 -43 55 -29 60 -36 85 -97 61 -150 197 -310 343 -403 43 -28 84 -54
92 -60 11 -8 10 -20 -6 -70 -48 -151 -64 -389 -34 -529 53 -251 206 -465 454
-636 56 -39 72 -57 116 -135 66 -119 152 -206 219 -225 100 -28 241 -9 317 43
19 12 44 42 57 65 23 42 24 42 82 42 58 0 59 -1 76 -36 37 -77 148 -128 279
-128 137 0 214 53 317 221 28 46 56 87 62 92 20 15 330 100 541 147 377 83
637 281 786 598 100 213 123 479 64 739 -13 56 -34 128 -48 160 -24 54 -28 57
-61 57 -95 0 -206 -73 -270 -179 -42 -69 -60 -132 -81 -280 -9 -63 -27 -145
-40 -183 -25 -74 -90 -192 -123 -221 -19 -18 -19 -17 -20 125 0 131 -3 155
-35 278 l-35 135 68 67 c89 87 150 173 205 291 40 83 50 97 78 106 18 6 48 24
67 40 l35 28 -81 85 c-173 184 -324 419 -384 602 l-23 69 21 111 c38 198 45
280 39 505 -5 244 -24 374 -83 580 -40 139 -55 176 -83 191 -26 13 -36 12
-101 -11z m-110 -154 c0 -2 -54 -42 -119 -89 -148 -105 -292 -221 -392 -315
-42 -39 -81 -71 -85 -71 -16 0 171 181 266 258 121 99 190 148 265 189 65 35
65 35 65 28z m208 -92 c63 -233 86 -511 62 -741 -12 -114 -50 -302 -61 -302
-8 0 -89 99 -89 109 0 3 9 29 20 58 24 63 50 254 50 366 0 147 -40 401 -71
447 -13 20 -57 -28 -211 -233 -92 -122 -114 -156 -96 -152 51 12 133 22 146
18 23 -9 72 -124 72 -171 0 -14 -15 -39 -35 -59 -41 -41 -40 -41 -225 2 -58
13 -126 27 -152 30 l-46 6 40 72 c62 110 194 279 325 416 105 109 222 211 242
211 5 0 17 -35 29 -77z m-2511 21 c90 -64 303 -278 407 -409 94 -119 160 -221
151 -236 -4 -5 -18 -9 -33 -9 -15 0 -74 -14 -132 -30 -139 -40 -188 -39 -230
0 -31 29 -32 34 -27 83 3 29 15 74 26 101 l21 49 58 -6 c31 -3 68 -9 82 -13
23 -6 23 -4 -11 32 -20 22 -76 89 -124 149 -102 127 -164 195 -181 195 -20 0
-26 -40 -31 -225 -8 -257 18 -416 94 -587 l25 -57 -42 -51 c-24 -28 -46 -48
-50 -43 -15 15 -59 171 -79 279 -41 218 -51 427 -31 636 9 96 28 188 37 188 3
0 34 -21 70 -46z m237 -776 c20 -9 23 -14 15 -25 -16 -19 -37 -16 -49 6 -18
35 -10 39 34 19z m2066 5 c0 -15 -33 -41 -46 -36 -21 8 -17 22 9 33 28 11 37
12 37 3z m-1355 -374 c100 -88 43 -259 -88 -259 -31 0 -83 40 -101 77 -67 140
78 279 189 182z m775 -7 c50 -49 60 -102 31 -166 -36 -82 -121 -110 -181 -60
-41 35 -60 74 -60 124 0 81 53 139 129 140 37 0 49 -5 81 -38z m-1750 -293
c-26 -94 -26 -168 -1 -200 43 -56 65 -113 65 -175 l1 -62 50 -11 c28 -7 61
-18 75 -26 l25 -13 -35 -6 c-115 -18 -134 -22 -138 -33 -2 -8 5 -13 19 -13 12
0 20 -3 16 -6 -3 -3 14 -30 39 -60 27 -34 46 -69 50 -92 l6 -38 121 3 c67 2
138 5 159 6 45 3 40 -7 -10 -24 -52 -16 -288 -135 -340 -171 l-43 -30 -37 25
c-64 42 -182 158 -203 198 -10 21 -19 51 -19 66 0 37 33 99 77 145 l35 36 -80
-5 c-71 -5 -189 8 -215 24 -4 2 20 34 54 71 67 71 175 214 229 302 78 129 110
174 117 166 2 -2 -5 -37 -17 -77z m2728 -107 c96 -145 201 -281 251 -326 11
-11 21 -22 21 -26 0 -16 -122 -32 -213 -29 l-96 4 44 -45 c76 -78 94 -151 51
-218 -40 -63 -211 -212 -244 -212 -4 0 -46 25 -93 56 -96 64 -186 111 -277
144 -34 12 -64 25 -66 29 -2 3 65 5 149 3 l153 -3 21 45 c28 65 80 133 115
153 17 9 12 12 -35 22 -30 6 -64 12 -77 13 -42 5 -24 23 41 42 l64 18 5 63 c4
49 16 83 52 154 25 50 46 101 46 114 0 13 -9 57 -20 98 -22 84 -24 102 -7 75
7 -11 58 -89 115 -174z m-2073 78 c19 -37 19 -49 -2 -72 -21 -24 -50 -23 -58
2 -10 32 -25 13 -25 -33 0 -102 70 -157 199 -157 42 0 83 5 91 10 10 6 17 32
20 72 l6 63 17 -55 c35 -116 38 -107 -37 -115 -164 -18 -275 13 -359 99 -43
44 -77 94 -77 113 0 16 159 97 202 102 4 1 14 -12 23 -29z m1446 -27 l67 -36
-21 -36 c-32 -56 -107 -130 -162 -159 -42 -22 -66 -27 -152 -30 -57 -2 -118
-1 -136 2 l-34 6 8 53 c6 46 32 127 41 127 2 0 2 -33 0 -74 l-4 -73 32 -7
c107 -21 221 5 257 60 25 39 23 135 -4 172 -36 50 -36 51 4 40 21 -5 68 -26
104 -45z m-276 -17 c17 -50 -28 -85 -66 -50 -25 22 -24 30 6 60 30 30 46 27
60 -10z m-370 -260 c99 -18 184 -46 289 -96 83 -39 146 -83 135 -95 -4 -3 -41
-15 -83 -27 -42 -11 -76 -25 -76 -30 0 -5 8 -7 18 -5 56 15 143 29 154 24 8
-2 15 -22 16 -42 2 -21 4 -42 5 -49 1 -8 -25 -10 -88 -8 -65 2 -86 0 -75 -7 8
-6 27 -11 41 -11 96 0 499 -155 646 -247 29 -18 56 -33 62 -33 78 0 -166 -122
-359 -179 -74 -22 -163 -45 -198 -52 -54 -10 -60 -13 -45 -24 10 -7 44 -21 76
-31 51 -16 67 -16 126 -6 38 6 103 22 144 35 56 18 74 21 70 11 -3 -8 -9 -14
-14 -14 -5 0 -9 -5 -9 -11 0 -14 -25 -39 -39 -39 -6 0 -10 -3 -9 -7 3 -11 -56
-102 -94 -145 -17 -20 -44 -60 -59 -89 -16 -29 -32 -55 -36 -58 -4 -3 -14 -18
-22 -33 -8 -16 -20 -28 -28 -28 -7 0 -13 -6 -13 -13 0 -20 -86 -146 -132 -193
-22 -23 -74 -58 -116 -79 -112 -54 -212 -126 -276 -197 -65 -71 -131 -195
-142 -263 l-6 -46 -46 3 c-46 3 -47 3 -54 46 -16 98 -88 216 -187 309 -66 62
-101 87 -243 169 -61 34 -82 53 -98 85 -12 22 -29 48 -39 58 -25 25 -63 107
-65 141 -1 16 -4 31 -8 35 -3 3 -4 24 -1 45 7 53 -25 120 -91 188 -28 29 -55
63 -61 75 -5 12 -16 27 -24 33 -29 22 7 22 104 -2 67 -17 116 -23 147 -20 51
5 148 36 148 47 0 4 -30 12 -67 19 -84 14 -211 49 -329 91 -117 41 -317 136
-310 147 8 13 148 80 303 146 129 54 251 93 382 122 36 8 67 17 70 20 3 4 -31
4 -76 2 -91 -5 -93 -4 -93 70 0 29 3 32 29 32 17 0 60 -7 97 -15 119 -28 89 0
-33 31 -40 10 -73 21 -73 24 0 7 116 84 155 103 56 27 193 69 272 82 106 18
232 18 328 1z m1752 -489 c-72 -87 -89 -137 -133 -387 -34 -199 -152 -397
-291 -489 -70 -47 -71 -37 -3 26 150 138 220 286 260 547 29 185 61 258 142
316 57 42 65 37 25 -13z m-2857 -1129 c15 -21 17 -28 6 -19 -16 13 -41 51 -33
51 2 0 14 -15 27 -32z m1842 -75 c-33 -37 -79 -86 -102 -108 -61 -59 -129
-147 -195 -255 -105 -171 -159 -219 -247 -220 -35 0 -38 2 -38 28 0 16 7 52
16 82 14 47 14 54 1 68 -25 24 -42 8 -78 -72 -37 -83 -50 -91 -99 -56 -40 28
-54 70 -47 140 7 76 52 174 108 235 46 50 57 53 35 10 -11 -21 -12 -34 -5 -48
13 -23 92 -60 174 -82 130 -33 142 -27 352 180 180 178 234 220 125 98z
m-1746 -31 c54 -72 168 -197 200 -220 43 -32 96 -37 177 -18 74 17 177 63 184
82 2 6 -3 28 -11 49 -22 51 -20 55 10 20 106 -126 158 -280 125 -368 -15 -39
-111 -97 -111 -67 0 6 -14 45 -31 86 -22 53 -36 74 -49 74 -33 0 -39 -21 -24
-85 23 -98 21 -105 -28 -105 -26 0 -57 9 -83 25 -43 25 -53 38 -197 260 -46
72 -107 157 -135 190 -27 33 -62 79 -77 103 l-27 43 25 -16 c14 -9 37 -33 52
-53z"/>
<path d="M3044 3210 c-111 -8 -135 -31 -100 -99 16 -29 103 -101 149 -122 22
-10 27 -19 27 -46 0 -47 -21 -84 -76 -132 -50 -44 -90 -56 -160 -48 -57 6 -56
-9 2 -34 72 -32 134 -15 210 59 l40 39 39 -39 c70 -72 138 -91 210 -59 25 11
45 24 45 29 0 4 -26 6 -58 4 -45 -3 -68 1 -99 16 -68 35 -140 132 -129 176 3
12 25 31 50 45 54 28 134 107 143 139 15 60 -86 85 -293 72z"/>
</g>
</svg>
